# Blender v2.82 (sub 7) OBJ File: 'nuggets2backup.blend'
# www.blender.org
mtllib tree.mtl
o Plane.001
v 3.805001 0.280615 0.176748
v 4.158497 0.280615 0.176748
v 3.805001 0.280615 -0.176748
v 4.158497 0.280615 -0.176748
v 3.740604 0.280615 -0.000000
v 3.981749 0.280615 0.241145
v 4.222894 0.280615 -0.000000
v 3.981749 0.280615 -0.241145
v 3.805001 3.117010 0.176748
v 4.158497 3.117010 0.176748
v 3.805001 3.117010 -0.176748
v 4.158497 3.117010 -0.176748
v 3.740604 3.117010 -0.000000
v 3.981749 3.117010 0.241145
v 4.222894 3.117010 -0.000000
v 3.981749 3.117010 -0.241145
v 3.981749 3.117010 -0.000000
v 3.657388 -0.016587 0.324361
v 4.306110 -0.016587 0.324361
v 3.657388 -0.016587 -0.324361
v 4.306110 -0.016587 -0.324361
v 3.539210 -0.016587 -0.000000
v 3.981749 -0.016587 0.442539
v 4.424288 -0.016587 -0.000000
v 3.981749 -0.016587 -0.442539
v 3.981749 -0.016587 -0.000000
v 3.981537 1.140104 -1.828871
v 5.565587 1.140104 -0.914319
v 5.565587 1.140104 0.914784
v 3.981537 1.140104 1.829335
v 3.981537 2.302304 0.000232
v 2.397487 1.140104 0.914784
v 2.397487 1.140104 -0.914319
v 3.981537 3.537874 -0.649187
v 4.543951 3.537874 -0.324477
v 4.543951 3.537874 0.324942
v 3.981537 3.537874 0.649651
v 3.981537 4.672564 0.000232
v 3.419124 3.537874 0.324942
v 3.419124 3.537874 -0.324477
v 3.981537 2.931915 -0.990689
v 4.839700 2.931915 -0.495228
v 4.839700 2.931915 0.495693
v 3.981537 2.931915 0.991153
v 3.981537 4.094115 0.000232
v 3.123374 2.931915 0.495692
v 3.123374 2.931915 -0.495228
v 3.981537 2.262853 -1.368636
v 5.167011 2.262853 -0.684202
v 5.167011 2.262853 0.684666
v 3.981537 2.262853 1.369100
v 3.981537 3.425053 0.000232
v 2.796063 2.262853 0.684666
v 2.796063 2.262853 -0.684202
v 3.981537 1.677572 -1.572645
v 5.343689 1.677572 -0.786206
v 5.343689 1.677572 0.786671
v 3.981537 1.677572 1.573110
v 3.981537 2.839772 0.000232
v 2.619385 1.677572 0.786671
v 2.619385 1.677572 -0.786206
vt 0.000000 0.500000
vt 0.000000 1.000000
vt 0.000000 1.000000
vt 0.000000 0.500000
vt 0.500000 0.000000
vt 0.000000 0.000000
vt 0.000000 0.000000
vt 0.500000 0.000000
vt 1.000000 0.500000
vt 1.000000 0.000000
vt 1.000000 0.000000
vt 1.000000 0.500000
vt 0.500000 1.000000
vt 1.000000 1.000000
vt 1.000000 1.000000
vt 0.500000 1.000000
vt 0.000000 0.000000
vt 0.500000 0.000000
vt 0.500000 0.500000
vt 0.000000 0.500000
vt 1.000000 0.000000
vt 1.000000 0.500000
vt 1.000000 1.000000
vt 0.500000 1.000000
vt 0.000000 1.000000
vt 0.500000 0.500000
vt 0.250000 0.490000
vt 0.250000 0.250000
vt 0.457846 0.370000
vt 0.457846 0.130000
vt 0.250000 0.010000
vt 0.042154 0.130000
vt 0.042154 0.370000
vt 0.750000 0.490000
vt 0.957846 0.370000
vt 0.957846 0.130000
vt 0.750000 0.010000
vt 0.542154 0.130000
vt 0.542154 0.370000
vt 0.250000 0.490000
vt 0.250000 0.250000
vt 0.457846 0.370000
vt 0.457846 0.130000
vt 0.250000 0.010000
vt 0.042154 0.130000
vt 0.042154 0.370000
vt 0.750000 0.490000
vt 0.957846 0.370000
vt 0.957846 0.130000
vt 0.750000 0.010000
vt 0.542154 0.130000
vt 0.542154 0.370000
vt 0.250000 0.490000
vt 0.250000 0.250000
vt 0.457846 0.370000
vt 0.457846 0.130000
vt 0.250000 0.010000
vt 0.042154 0.130000
vt 0.042154 0.370000
vt 0.750000 0.490000
vt 0.957846 0.370000
vt 0.957846 0.130000
vt 0.750000 0.010000
vt 0.542154 0.130000
vt 0.542154 0.370000
vt 0.250000 0.490000
vt 0.250000 0.250000
vt 0.457846 0.370000
vt 0.457846 0.130000
vt 0.250000 0.010000
vt 0.042154 0.130000
vt 0.042154 0.370000
vt 0.750000 0.490000
vt 0.957846 0.370000
vt 0.957846 0.130000
vt 0.750000 0.010000
vt 0.542154 0.130000
vt 0.542154 0.370000
vt 0.250000 0.490000
vt 0.250000 0.250000
vt 0.457846 0.370000
vt 0.457846 0.130000
vt 0.250000 0.010000
vt 0.042154 0.130000
vt 0.042154 0.370000
vt 0.750000 0.490000
vt 0.957846 0.370000
vt 0.957846 0.130000
vt 0.750000 0.010000
vt 0.542154 0.130000
vt 0.542154 0.370000
vn -0.9497 0.3131 0.0000
vn -0.6681 0.3276 -0.6681
vn -0.6526 -0.3850 -0.6526
vn -0.9149 -0.4035 0.0000
vn 0.0000 0.3131 0.9497
vn -0.6681 0.3276 0.6681
vn -0.6526 -0.3850 0.6526
vn 0.0000 -0.4035 0.9149
vn 0.9497 0.3131 0.0000
vn 0.6681 0.3276 0.6681
vn 0.6526 -0.3850 0.6526
vn 0.9149 -0.4035 0.0000
vn 0.0000 0.3131 -0.9497
vn 0.6681 0.3276 -0.6681
vn 0.6526 -0.3850 -0.6526
vn 0.0000 -0.4035 -0.9149
vn -0.5530 0.6232 0.5530
vn 0.0000 0.6375 0.7704
vn 0.0000 1.0000 0.0000
vn -0.7704 0.6375 0.0000
vn 0.5530 0.6232 0.5530
vn 0.7704 0.6375 0.0000
vn 0.5530 0.6232 -0.5530
vn 0.0000 0.6375 -0.7704
vn -0.5530 0.6232 -0.5530
vn 0.0000 -1.0000 0.0000
vn 0.0000 -0.2213 -0.9752
vn 0.8445 -0.2213 -0.4876
vn 0.8445 -0.2213 0.4876
vn 0.0000 -0.2213 0.9752
vn -0.8445 -0.2213 0.4876
vn -0.8445 -0.2213 -0.4876
vn 0.0000 -0.4105 -0.9118
vn 0.7897 -0.4105 -0.4559
vn 0.7897 -0.4105 0.4559
vn 0.0000 -0.4105 0.9118
vn -0.7897 -0.4105 0.4559
vn -0.7897 -0.4105 -0.4559
vn 0.0000 -0.3380 -0.9411
vn 0.8150 -0.3380 -0.4706
vn 0.8150 -0.3380 0.4706
vn 0.0000 -0.3380 0.9411
vn -0.8150 -0.3380 0.4706
vn -0.8150 -0.3380 -0.4706
vn 0.0000 -0.2752 -0.9614
vn 0.8326 -0.2752 -0.4807
vn 0.8326 -0.2752 0.4807
vn 0.0000 -0.2752 0.9614
vn -0.8326 -0.2752 0.4807
vn -0.8326 -0.2752 -0.4807
vn 0.0000 -0.2488 -0.9685
vn 0.8388 -0.2488 -0.4843
vn 0.8388 -0.2488 0.4843
vn 0.0000 -0.2488 0.9685
vn -0.8388 -0.2488 0.4843
vn -0.8388 -0.2488 -0.4843
g Plane.001_Plane.001_wood
usemtl wood
s 1
f 5/1/1 3/2/2 20/3/3 22/4/4
f 6/5/5 1/6/6 18/7/7 23/8/8
f 7/9/9 2/10/10 19/11/11 24/12/12
f 8/13/13 4/14/14 21/15/15 25/16/16
f 9/17/17 14/18/18 17/19/19 13/20/20
f 14/18/18 10/21/21 15/22/22 17/19/19
f 17/19/19 15/22/22 12/23/23 16/24/24
f 13/20/20 17/19/19 16/24/24 11/25/25
f 5/1/1 1/6/6 9/17/17 13/20/20
f 4/14/14 8/13/13 16/24/24 12/23/23
f 2/10/10 7/9/9 15/22/22 10/21/21
f 1/6/6 6/5/5 14/18/18 9/17/17
f 3/2/2 5/1/1 13/20/20 11/25/25
f 8/13/13 3/2/2 11/25/25 16/24/24
f 7/9/9 4/14/14 12/23/23 15/22/22
f 6/5/5 2/10/10 10/21/21 14/18/18
f 18/7/7 22/4/4 26/26/26 23/8/8
f 23/8/8 26/26/26 24/12/12 19/11/11
f 26/26/26 25/16/16 21/15/15 24/12/12
f 22/4/4 20/3/3 25/16/16 26/26/26
f 3/2/2 8/13/13 25/16/16 20/3/3
f 4/14/14 7/9/9 24/12/12 21/15/15
f 2/10/10 6/5/5 23/8/8 19/11/11
f 1/6/6 5/1/1 22/4/4 18/7/7
g Plane.001_Plane.001_tree_green
usemtl tree_green
f 27/27/27 31/28/19 28/29/28
f 28/29/28 31/28/19 29/30/29
f 29/30/29 31/28/19 30/31/30
f 30/31/30 31/28/19 32/32/31
f 32/32/31 31/28/19 33/33/32
f 33/33/32 31/28/19 27/27/27
f 27/34/27 28/35/28 29/36/29 30/37/30 32/38/31 33/39/32
f 34/40/33 38/41/19 35/42/34
f 35/42/34 38/41/19 36/43/35
f 36/43/35 38/41/19 37/44/36
f 37/44/36 38/41/19 39/45/37
f 39/45/37 38/41/19 40/46/38
f 40/46/38 38/41/19 34/40/33
f 34/47/33 35/48/34 36/49/35 37/50/36 39/51/37 40/52/38
f 41/53/39 45/54/19 42/55/40
f 42/55/40 45/54/19 43/56/41
f 43/56/41 45/54/19 44/57/42
f 44/57/42 45/54/19 46/58/43
f 46/58/43 45/54/19 47/59/44
f 47/59/44 45/54/19 41/53/39
f 41/60/39 42/61/40 43/62/41 44/63/42 46/64/43 47/65/44
f 48/66/45 52/67/19 49/68/46
f 49/68/46 52/67/19 50/69/47
f 50/69/47 52/67/19 51/70/48
f 51/70/48 52/67/19 53/71/49
f 53/71/49 52/67/19 54/72/50
f 54/72/50 52/67/19 48/66/45
f 48/73/45 49/74/46 50/75/47 51/76/48 53/77/49 54/78/50
f 55/79/51 59/80/19 56/81/52
f 56/81/52 59/80/19 57/82/53
f 57/82/53 59/80/19 58/83/54
f 58/83/54 59/80/19 60/84/55
f 60/84/55 59/80/19 61/85/56
f 61/85/56 59/80/19 55/79/51
f 55/86/51 56/87/52 57/88/53 58/89/54 60/90/55 61/91/56
